<?xml version="1.0" encoding="iso-8859-1"?>
<!-- Generator: Adobe Illustrator 19.0.0, SVG Export Plug-In . SVG Version: 6.00 Build 0)  -->
<svg xmlns="http://www.w3.org/2000/svg" xmlns:xlink="http://www.w3.org/1999/xlink" version="1.1" id="Layer_1" x="0px" y="0px" viewBox="0 0 419.559 419.559" style="enable-background:new 0 0 419.559 419.559;" xml:space="preserve" width="512" height="512">
<g>
	<circle style="fill:#8BDC65;" cx="209.779" cy="209.779" r="209.779"/>
	<circle style="fill:#77BD57;" cx="298.413" cy="36.268" r="8.633"/>
	<circle style="fill:#77BD57;" cx="383.896" cy="278.618" r="8.633"/>
	<circle style="fill:#77BD57;" cx="307.046" cy="265.779" r="8.633"/>
	<circle style="fill:#77BD57;" cx="351.779" cy="299.299" r="8.633"/>
	<circle style="fill:#77BD57;" cx="254.395" cy="108.672" r="8.633"/>
	<circle style="fill:#77BD57;" cx="204.779" cy="36.268" r="8.633"/>
	<path style="fill:#F9EBCB;" d="M228.495,339.78c-71.683,0-130.001-58.318-130.001-130.001S156.812,79.778,228.495,79.778   c43.431,0,72.948,6.906,101.493,13.585c18.919,4.427,38.292,8.956,61.362,11.295c-3.263-5.624-6.772-11.085-10.527-16.362   c-16.808-2.378-31.87-5.901-47.418-9.539c-29.373-6.872-59.748-13.979-104.91-13.979c-79.954,0-145.001,65.047-145.001,145.001   S148.541,354.78,228.495,354.78c45.163,0,75.537-7.107,104.91-13.979c15.548-3.638,30.61-7.161,47.418-9.539   c3.754-5.277,7.264-10.738,10.527-16.362c-23.07,2.339-42.443,6.868-61.362,11.295C301.443,332.874,271.926,339.78,228.495,339.78z   "/>
</g>















</svg>
